<svg width="40" height="40" viewBox="0 0 40 40" fill="none" xmlns="http://www.w3.org/2000/svg">
<path d="M12.4999 27.4999L24.1666 24.1666L27.4999 12.4999L15.8333 15.8333L12.4999 27.4999ZM19.9999 22.4999C19.3055 22.4999 18.7155 22.2571 18.2299 21.7716C17.7444 21.286 17.501 20.6955 17.4999 19.9999C17.4988 19.3044 17.7421 18.7144 18.2299 18.2299C18.7177 17.7455 19.3077 17.5021 19.9999 17.4999C20.6921 17.4977 21.2827 17.741 21.7716 18.2299C22.2605 18.7188 22.5033 19.3088 22.4999 19.9999C22.4966 20.691 22.2538 21.2816 21.7716 21.7716C21.2894 22.2616 20.6988 22.5044 19.9999 22.4999ZM19.9999 36.6666C17.6944 36.6666 15.5277 36.2288 13.4999 35.3533C11.4721 34.4777 9.70825 33.2905 8.20825 31.7916C6.70825 30.2927 5.52103 28.5288 4.64659 26.4999C3.77214 24.471 3.33437 22.3044 3.33325 19.9999C3.33214 17.6955 3.76992 15.5288 4.64659 13.4999C5.52325 11.471 6.71048 9.70714 8.20825 8.20825C9.70603 6.70936 11.4699 5.52214 13.4999 4.64659C15.5299 3.77103 17.6966 3.33325 19.9999 3.33325C22.3033 3.33325 24.4699 3.77103 26.4999 4.64659C28.5299 5.52214 30.2938 6.70936 31.7916 8.20825C33.2894 9.70714 34.4771 11.471 35.3549 13.4999C36.2327 15.5288 36.6699 17.6955 36.6666 19.9999C36.6633 22.3044 36.2255 24.471 35.3533 26.4999C34.481 28.5288 33.2938 30.2927 31.7916 31.7916C30.2894 33.2905 28.5255 34.4783 26.4999 35.3549C24.4744 36.2316 22.3077 36.6688 19.9999 36.6666Z" fill="white"/>
</svg>
