<svg width="40" height="40" viewBox="0 0 40 40" fill="none" xmlns="http://www.w3.org/2000/svg">
<path d="M6.66675 31.6667V16.6667C6.66675 16.1389 6.78508 15.6389 7.02175 15.1667C7.25841 14.6945 7.58453 14.3056 8.00008 14L18.0001 6.50004C18.5834 6.0556 19.2501 5.83337 20.0001 5.83337C20.7501 5.83337 21.4167 6.0556 22.0001 6.50004L32.0001 14C32.4167 14.3056 32.7434 14.6945 32.9801 15.1667C33.2167 15.6389 33.3345 16.1389 33.3334 16.6667V31.6667C33.3334 32.5834 33.0067 33.3684 32.3534 34.0217C31.7001 34.675 30.9156 35.0012 30.0001 35H25.0001C24.5279 35 24.1323 34.84 23.8134 34.52C23.4945 34.2 23.3345 33.8045 23.3334 33.3334V25C23.3334 24.5278 23.1734 24.1323 22.8534 23.8134C22.5334 23.4945 22.1379 23.3345 21.6667 23.3334H18.3334C17.8612 23.3334 17.4656 23.4934 17.1467 23.8134C16.8279 24.1334 16.6679 24.5289 16.6667 25V33.3334C16.6667 33.8056 16.5067 34.2017 16.1867 34.5217C15.8667 34.8417 15.4712 35.0012 15.0001 35H10.0001C9.08341 35 8.29897 34.6739 7.64675 34.0217C6.99453 33.3695 6.66786 32.5845 6.66675 31.6667Z" fill="white"/>
</svg>
