<svg width="50" height="50" viewBox="0 0 50 50" fill="none" xmlns="http://www.w3.org/2000/svg">
<path fill-rule="evenodd" clip-rule="evenodd" d="M5.28734 8.56876C5.62534 8.39295 6.00509 8.3132 6.38527 8.33818C6.76544 8.36315 7.13149 8.49191 7.44359 8.71043L28.2769 23.2938C28.5511 23.4859 28.775 23.7413 28.9296 24.0383C29.0841 24.3353 29.1649 24.6652 29.1649 25C29.1649 25.3348 29.0841 25.6647 28.9296 25.9617C28.775 26.2588 28.5511 26.5141 28.2769 26.7063L7.44359 41.2896C7.13142 41.5079 6.76538 41.6363 6.38529 41.6611C6.00519 41.6859 5.62558 41.606 5.28772 41.4301C4.94987 41.2541 4.66671 40.989 4.46903 40.6634C4.27135 40.3378 4.16672 39.9642 4.1665 39.5833V10.4167C4.16646 10.0356 4.27093 9.66183 4.46855 9.33601C4.66617 9.01019 4.94938 8.74481 5.28734 8.56876ZM33.3332 12.0833C33.3332 11.0888 33.7283 10.135 34.4315 9.43169C35.1348 8.72843 36.0886 8.33334 37.0832 8.33334H39.9998C40.4923 8.33334 40.9799 8.43034 41.4349 8.6188C41.8899 8.80725 42.3033 9.08347 42.6515 9.43169C42.9997 9.77991 43.2759 10.1933 43.4644 10.6483C43.6528 11.1033 43.7498 11.5909 43.7498 12.0833V37.9167C43.7498 38.4091 43.6528 38.8968 43.4644 39.3517C43.2759 39.8067 42.9997 40.2201 42.6515 40.5683C42.3033 40.9165 41.8899 41.1928 41.4349 41.3812C40.9799 41.5697 40.4923 41.6667 39.9998 41.6667H37.0832C36.0886 41.6667 35.1348 41.2716 34.4315 40.5683C33.7283 39.8651 33.3332 38.9112 33.3332 37.9167V12.0833Z" fill="white"/>
</svg>
