<svg width="50" height="50" viewBox="0 0 50 50" fill="none" xmlns="http://www.w3.org/2000/svg">
<path fill-rule="evenodd" clip-rule="evenodd" d="M44.7127 41.4313C44.3747 41.6071 43.9949 41.6868 43.6147 41.6618C43.2346 41.6369 42.8685 41.5081 42.5564 41.2896L21.7231 26.7063C21.4489 26.5141 21.225 26.2587 21.0704 25.9617C20.9159 25.6647 20.8351 25.3348 20.8351 25C20.8351 24.6652 20.9159 24.3353 21.0704 24.0383C21.225 23.7413 21.4489 23.4859 21.7231 23.2938L42.5564 8.71042C42.8686 8.49216 43.2346 8.36367 43.6147 8.3389C43.9948 8.31414 44.3744 8.39405 44.7123 8.56996C45.0501 8.74587 45.3333 9.01103 45.531 9.33662C45.7286 9.66222 45.8333 10.0358 45.8335 10.4167L45.8335 39.5833C45.8335 39.9644 45.7291 40.3382 45.5314 40.664C45.3338 40.9898 45.0506 41.2552 44.7127 41.4313ZM16.6668 37.9167C16.6668 38.9112 16.2717 39.8651 15.5685 40.5683C14.8652 41.2716 13.9114 41.6667 12.9168 41.6667H10.0002C9.50771 41.6667 9.02007 41.5697 8.5651 41.3812C8.11013 41.1928 7.69674 40.9165 7.34851 40.5683C7.00029 40.2201 6.72407 39.8067 6.53561 39.3517C6.34716 38.8968 6.25016 38.4091 6.25016 37.9167L6.25016 12.0833C6.25016 11.5909 6.34716 11.1032 6.53561 10.6483C6.72407 10.1933 7.00029 9.77991 7.34851 9.43169C7.69674 9.08347 8.11013 8.80725 8.5651 8.61879C9.02007 8.43034 9.50771 8.33334 10.0002 8.33334H12.9168C13.9114 8.33334 14.8652 8.72843 15.5685 9.43169C16.2717 10.135 16.6668 11.0888 16.6668 12.0833L16.6668 37.9167Z" fill="white"/>
</svg>
