<svg width="27" height="27" viewBox="0 0 27 27" fill="none" xmlns="http://www.w3.org/2000/svg">
<path d="M4.44434 20C4.44434 18.8212 4.91259 17.6908 5.74608 16.8573C6.57958 16.0238 7.71004 15.5555 8.88878 15.5555H17.7777C18.9564 15.5555 20.0869 16.0238 20.9204 16.8573C21.7539 17.6908 22.2221 18.8212 22.2221 20C22.2221 20.5894 21.988 21.1546 21.5712 21.5713C21.1545 21.9881 20.5893 22.2222 19.9999 22.2222H6.66656C6.07719 22.2222 5.51196 21.9881 5.09521 21.5713C4.67846 21.1546 4.44434 20.5894 4.44434 20Z" stroke="white" stroke-width="2" stroke-linejoin="round"/>
<path d="M13.3333 11.1111C15.1743 11.1111 16.6667 9.61874 16.6667 7.77779C16.6667 5.93684 15.1743 4.44446 13.3333 4.44446C11.4924 4.44446 10 5.93684 10 7.77779C10 9.61874 11.4924 11.1111 13.3333 11.1111Z" stroke="white" stroke-width="2"/>
</svg>
