<svg width="28" height="28" viewBox="0 0 28 28" fill="none" xmlns="http://www.w3.org/2000/svg">
<path d="M10.8116 18.2092C8.74405 18.2092 6.99445 17.493 5.56275 16.0605C4.13105 14.628 3.41482 12.8784 3.41406 10.8117C3.4133 8.74494 4.12953 6.99533 5.56275 5.56287C6.99597 4.13041 8.74557 3.41418 10.8116 3.41418C12.8775 3.41418 14.6275 4.13041 16.0615 5.56287C17.4955 6.99533 18.2113 8.74494 18.2091 10.8117C18.2091 11.6463 18.0763 12.4334 17.8107 13.1732C17.5452 13.9129 17.1848 14.5673 16.7296 15.1364L23.1028 21.5096C23.3114 21.7182 23.4158 21.9838 23.4158 22.3063C23.4158 22.6287 23.3114 22.8943 23.1028 23.1029C22.8941 23.3116 22.6286 23.4159 22.3061 23.4159C21.9837 23.4159 21.7181 23.3116 21.5095 23.1029L15.1363 16.7297C14.5672 17.1849 13.9128 17.5453 13.1731 17.8109C12.4333 18.0764 11.6461 18.2092 10.8116 18.2092ZM10.8116 15.933C12.2342 15.933 13.4436 15.4353 14.4397 14.4399C15.4359 13.4444 15.9337 12.235 15.9329 10.8117C15.9321 9.38833 15.4344 8.17931 14.4397 7.18463C13.4451 6.18995 12.2357 5.69186 10.8116 5.69034C9.38745 5.68882 8.17843 6.18692 7.18451 7.18463C6.19059 8.18235 5.69249 9.39136 5.69022 10.8117C5.68794 12.232 6.18604 13.4414 7.18451 14.4399C8.18298 15.4383 9.392 15.9361 10.8116 15.933Z" fill="white"/>
</svg>
